<?xml version="1.0" encoding="utf-8"?>
<svg viewBox="0 0 500 500" xmlns="http://www.w3.org/2000/svg" xmlns:xlink="http://www.w3.org/1999/xlink" xmlns:bx="https://boxy-svg.com">
  <defs>
    <linearGradient id="color-0" gradientUnits="userSpaceOnUse" gradientTransform="matrix(1.63228, 0, 0, 1.63228, -281.412839, -547.564685)" bx:pinned="true">
      <title>Primary</title>
      <stop style="stop-color: rgb(55, 198, 255);"/>
    </linearGradient>
    <linearGradient id="color-1" gradientUnits="userSpaceOnUse" gradientTransform="matrix(0.809526, 0, -0.000001, 0.809519, 603.628204, 562.108521)" bx:pinned="true">
      <title>Secondary</title>
      <stop style="stop-color: rgb(38, 56, 105);"/>
    </linearGradient>
    <linearGradient id="color-2" gradientUnits="userSpaceOnUse" gradientTransform="matrix(1, 0, 0, 1, 0.000046, 0.000109)" bx:pinned="true">
      <title>Tertiary</title>
      <stop style="stop-color: rgb(0, 0, 0);"/>
    </linearGradient>
    <style bx:fonts="Aldrich">@import url(https://fonts.googleapis.com/css2?family=Aldrich%3Aital%2Cwght%400%2C400&amp;display=swap);</style>
    <bx:grid x="0" y="0" width="1" height="1"/>
  </defs>
  <g style="transform-origin: 250px 250.469px;" transform="matrix(1.639344, 0, 0, 1.634318, 0.000047, -0.469262)">
    <title>Logo Background</title>
    <path d="M 400 250 A 150 150 0 0 1 250 400 A 150 150 0 0 1 100 250 A 150 150 0 0 1 250 100 A 150 150 0 0 1 400 250 Z" style="fill: url('#color-2'); stroke: url('#color-0'); stroke-width: 5px;" id="path-0"/>
    <path d="M 400 250 C 400 167.157 332.843 100 250 100 C 167.157 100 100 167.157 100 250 C 100 332.843 167.157 400 250 400 C 332.843 400 400 332.843 400 250 Z" style="stroke-width: 5px; fill: none;" id="path-1"/>
    <path d="M 250 402.5 C 208.068 402.5 169.626 385.294 142.166 357.834 C 114.706 330.374 97.5 291.932 97.5 250 C 97.5 208.068 114.706 169.626 142.166 142.166 C 169.626 114.706 208.068 97.5 250 97.5 C 291.932 97.5 330.374 114.706 357.834 142.166 C 385.294 169.626 402.5 208.068 402.5 250 C 402.5 291.932 385.294 330.374 357.834 357.834 C 330.374 385.294 291.932 402.5 250 402.5 Z M 354.298 354.298 C 381.128 327.469 397.5 290.911 397.5 250 C 397.5 209.089 381.128 172.531 354.298 145.702 C 327.469 118.872 290.911 102.5 250 102.5 C 209.089 102.5 172.531 118.872 145.702 145.702 C 118.872 172.531 102.5 209.089 102.5 250 C 102.5 290.911 118.872 327.469 145.702 354.298 C 172.531 381.128 209.089 397.5 250 397.5 C 290.911 397.5 327.469 381.128 354.298 354.298 Z" style="fill: none;"/>
    <ellipse style="fill: url('#color-1');" cx="163" cy="231" rx="5" ry="5"/>
    <ellipse style="fill: url('#color-1');" cx="163" cy="325" rx="5" ry="5"/>
    <ellipse style="fill: url('#color-1');" cx="175" cy="339" rx="5" ry="5"/>
    <ellipse style="fill: url('#color-1');" cx="214" cy="316" rx="5" ry="5"/>
    <ellipse style="fill: url('#color-1');" cx="234" cy="279" rx="5" ry="5"/>
    <ellipse style="fill: url('#color-1');" cx="244" cy="352" rx="5" ry="5"/>
    <ellipse style="fill: url('#color-1');" cx="279" cy="357" rx="5" ry="5"/>
    <ellipse style="fill: url('#color-1');" cx="290" cy="382" rx="5" ry="5"/>
    <ellipse style="fill: url('#color-1');" cx="309" cy="325" rx="5" ry="5"/>
    <ellipse style="fill: url('#color-1');" cx="307" cy="282" rx="5" ry="5"/>
    <line style="stroke: url('#color-1'); stroke-width: 2px; fill: none;" x1="163" y1="139" x2="163" y2="231"/>
    <polyline style="stroke: url('#color-1'); stroke-width: 2px; fill: none;" points="179 169 179 237 163 253 162.967 325.212"/>
    <polyline style="stroke: url('#color-1'); stroke-width: 2px; fill: none;" points="187 169 187 270.533 175 282 175 339"/>
    <polyline style="stroke: url('#color-1'); stroke-width: 2px; fill: none;" points="251 169 251 287 244 294 244 352"/>
    <polyline style="stroke: url('#color-1'); stroke-width: 2px; fill: none;" points="202 121 202 214 214 225 214 316"/>
    <line style="stroke: url('#color-1'); stroke-width: 2px; fill: none;" x1="234" y1="127" x2="234" y2="279"/>
    <polyline style="stroke: url('#color-1'); stroke-width: 2px; fill: none;" points="271 136 271 306 279 314 279 357"/>
    <line style="stroke: url('#color-1'); stroke-width: 2px; fill: none;" x1="290" y1="120" x2="290" y2="382"/>
    <polyline style="stroke: url('#color-1'); stroke-width: 2px; fill: none;" points="335 145 335 199 319 215 319 303 309 312 309 325"/>
    <polyline style="stroke: url('#color-1'); stroke-width: 2px; fill: none;" points="319 170 319 198 307 210 307 282"/>
  </g>
  <text style="fill: url('#color-0'); font-family: Aldrich; font-size: 220.5px; font-weight: 700; text-anchor: middle; white-space: pre; transform-origin: 250px 249.688px;" x="250.001" y="318.109" transform="matrix(1.004328, 0, 0, 1.001249, 0.000123, 0.311948)">O</text>
  <text style="fill: url('#color-0'); font-family: Aldrich; font-size: 44px; font-weight: 700; letter-spacing: 2px; text-anchor: middle; white-space: pre; transform-origin: 250px 259.469px;" transform="matrix(1.639344, 0, 0, 1.634318, 0.000047, -9.469264)" x="139.951" y="138.323"><textPath startOffset="564" xlink:href="#path-1">COMPLEXITY</textPath></text>
  <text style="fill: url('#color-0'); font-family: Aldrich; font-size: 44px; font-weight: 700; letter-spacing: -2.4px; text-anchor: middle; white-space: pre; transform-origin: 250px 211.469px;" transform="matrix(1.639344, 0, 0, 1.634318, 0.000047, 38.530738)" x="249.483" y="193.445"><textPath startOffset="457" xlink:href="#path-0">BIG</textPath></text>
</svg>