<?xml version="1.0" encoding="UTF-8" standalone="no"?>
<svg
   version="1.0"
   width="436pt"
   height="512pt"
   viewBox="0 0 436 512"
   preserveAspectRatio="xMidYMid"
   id="svg2"
   sodipodi:docname="logoutIcon.svg"
   inkscape:version="1.3.2 (091e20e, 2023-11-25)"
   xmlns:inkscape="http://www.inkscape.org/namespaces/inkscape"
   xmlns:sodipodi="http://sodipodi.sourceforge.net/DTD/sodipodi-0.dtd"
   xmlns="http://www.w3.org/2000/svg"
   xmlns:svg="http://www.w3.org/2000/svg">
  <defs
     id="defs2" />
  <sodipodi:namedview
     id="namedview2"
     pagecolor="#ffffff"
     bordercolor="#999999"
     borderopacity="1"
     inkscape:showpageshadow="2"
     inkscape:pageopacity="0"
     inkscape:pagecheckerboard="0"
     inkscape:deskcolor="#d1d1d1"
     inkscape:document-units="pt"
     inkscape:zoom="0.43619099"
     inkscape:cx="208.62421"
     inkscape:cy="288.86429"
     inkscape:window-width="1312"
     inkscape:window-height="449"
     inkscape:window-x="0"
     inkscape:window-y="25"
     inkscape:window-maximized="0"
     inkscape:current-layer="svg2" />
  <rect
     style="fill:#ffffff;fill-opacity:1;stroke:#ffffff;stroke-width:26.4572;stroke-opacity:1;paint-order:stroke fill markers"
     id="rect1"
     width="176.73769"
     height="366.36389"
     x="162.21347"
     y="38.106197" />
  <g
     transform="matrix(-0.10848931,0,0,-0.10848931,496.10695,533.73265)"
     fill="#000000"
     stroke="none"
     id="g2"
     style="fill:#000000;fill-opacity:1">
    <path
       d="m 633,4836 -28,-24 -3,-1912 -2,-1911 27,-28 c 37,-35 1761,-701 1817,-701 26,0 44,7 61,25 l 25,24 v 305 305 l 423,3 c 469,3 455,1 497,71 19,31 20,55 20,635 v 602 h -135 -135 l -2,-512 -3,-513 -332,-3 -333,-2 v 1446 c 0,1597 4,1488 -62,1535 -16,12 -255,109 -531,215 l -502,193 880,-2 880,-2 3,-512 2,-513 h 135 135 v 600 c 0,654 2,634 -56,679 l -27,21 H 2024 661 Z"
       id="path1"
       style="fill:#000000;fill-opacity:1" />
    <path
       d="m 3778,3561 -33,-29 -4,-156 -3,-156 h -363 -364 l -20,-26 c -20,-26 -21,-39 -21,-299 0,-260 1,-273 21,-299 l 20,-26 h 365 364 v -129 c 0,-71 3,-142 6,-160 10,-48 49,-81 97,-81 41,0 46,5 349,308 329,328 338,339 324,419 -6,33 -45,76 -319,351 -298,297 -314,312 -350,312 -26,0 -46,-8 -69,-29 z"
       id="path2"
       style="fill:#000000;fill-opacity:1" />
  </g>
  <rect
     style="fill:#000000;fill-opacity:1;stroke:#000000;stroke-width:19.3549;stroke-opacity:1;paint-order:stroke fill markers"
     id="rect2"
     width="9.7121878"
     height="149.81856"
     x="129.27037"
     y="156.42992" />
</svg>
