<?xml version="1.0" standalone="no"?>
<!DOCTYPE svg PUBLIC "-//W3C//DTD SVG 20010904//EN"
 "http://www.w3.org/TR/2001/REC-SVG-20010904/DTD/svg10.dtd">
<svg version="1.0" xmlns="http://www.w3.org/2000/svg"
 width="554.000000pt" height="526.000000pt" viewBox="0 0 554.000000 526.000000"
 preserveAspectRatio="xMidYMid meet">

<g transform="translate(0.000000,526.000000) scale(0.100000,-0.100000)"
fill="#000000" stroke="none">
<path d="M3845 5203 c-38 -10 -65 -36 -75 -72 -5 -20 -10 -123 -10 -228 l0
-192 -66 -38 c-37 -21 -186 -108 -333 -194 -298 -174 -311 -186 -311 -274 0
-29 -3 -66 -6 -83 l-6 -31 -252 -3 c-280 -3 -290 -6 -343 -75 l-28 -36 -8
-241 c-4 -133 -6 -437 -5 -676 3 -383 5 -439 20 -465 21 -39 56 -71 91 -84 30
-12 1122 -16 1151 -5 14 5 16 43 16 315 l0 309 160 0 160 0 0 -315 0 -315 570
0 c459 0 577 3 603 14 47 19 84 67 96 126 15 71 15 1260 0 1315 -14 51 -73
110 -124 124 -24 6 -134 11 -272 11 l-233 0 0 58 c0 72 -15 125 -43 157 -12
13 -168 110 -347 214 l-325 189 -3 88 c-2 63 1 90 10 96 7 4 87 8 178 8 91 0
170 4 177 8 22 14 33 63 33 145 0 158 0 157 -262 156 -106 -1 -202 -4 -213 -6z
m72 -792 c56 -26 95 -86 100 -154 4 -44 0 -59 -25 -98 -85 -132 -274 -110
-323 38 -36 109 55 233 171 233 19 0 54 -9 77 -19z m-877 -801 l0 -160 -160 0
-160 0 0 160 0 160 160 0 160 0 0 -160z m480 0 l0 -160 -160 0 -160 0 0 160 0
160 160 0 160 0 0 -160z m480 0 l0 -160 -160 0 -160 0 0 160 0 160 160 0 160
0 0 -160z m480 0 l0 -160 -160 0 -160 0 0 160 0 160 160 0 160 0 0 -160z m480
0 l0 -160 -160 0 -160 0 0 160 0 160 160 0 160 0 0 -160z m-1919 -612 c1 -73
4 -119 6 -103 7 55 11 60 33 40 16 -14 22 -15 35 -5 11 10 17 9 28 -2 21 -21
37 -105 23 -117 -6 -5 -106 -6 -228 -3 l-218 5 0 158 0 159 160 0 160 0 1
-132z m479 -28 l0 -160 -160 0 -160 0 0 160 0 160 160 0 160 0 0 -160z m960 0
l0 -160 -160 0 -160 0 0 160 0 160 160 0 160 0 0 -160z m480 0 l0 -160 -160 0
-160 0 0 160 0 160 160 0 160 0 0 -160z"/>
<path d="M1211 3760 c-90 -19 -183 -97 -223 -188 -28 -64 -29 -180 0 -244 43
-98 135 -170 235 -186 184 -29 342 85 372 271 l6 37 130 0 131 0 29 29 c37 37
37 65 0 102 l-29 29 -152 0 -152 0 -44 49 c-75 83 -194 123 -303 101z"/>
<path d="M613 2954 c-40 -20 -38 -17 -174 -384 -128 -345 -133 -373 -85 -454
42 -72 96 -98 216 -104 169 -8 213 13 226 107 l6 50 37 -18 c20 -10 55 -24 79
-31 l42 -13 0 -136 c0 -115 -39 -628 -54 -712 -3 -15 -60 -155 -127 -310 -67
-156 -126 -300 -131 -320 -18 -68 25 -160 91 -193 73 -37 171 -20 218 39 27
34 41 63 213 471 l89 210 15 153 c8 84 16 155 19 157 3 4 159 -189 180 -222 8
-15 16 -71 57 -439 29 -252 33 -273 58 -309 35 -51 88 -78 151 -78 58 1 99 19
134 62 50 59 50 72 2 479 -25 207 -47 388 -51 403 -3 15 -73 116 -155 224
l-149 197 0 270 0 270 30 -41 c38 -53 39 -54 283 -167 227 -106 266 -115 328
-79 45 26 84 102 75 148 -15 77 -37 94 -260 196 l-208 95 -115 195 c-63 107
-127 208 -141 223 -52 56 -96 70 -224 75 -180 7 -221 -1 -277 -53 -25 -23 -62
-48 -82 -54 -20 -6 -57 -25 -82 -41 l-47 -30 -1 38 c-1 63 -20 105 -59 124
-43 22 -85 22 -127 2z m347 -464 c0 -173 -3 -260 -10 -260 -21 0 -86 39 -117
70 l-33 32 0 145 c0 140 1 145 26 178 24 32 108 95 126 95 4 0 8 -117 8 -260z"/>
<path d="M3720 2305 c-27 -33 4 -133 42 -135 4 0 32 25 63 55 46 45 62 55 90
55 19 0 35 -4 35 -9 0 -5 -9 -7 -19 -4 -11 3 -28 0 -38 -6 -17 -10 -17 -11 5
-17 13 -4 25 -17 28 -33 3 -14 10 -42 15 -61 28 -108 -23 -178 -135 -183 -35
-2 -41 -6 -48 -32 -4 -16 -6 -35 -4 -42 3 -6 0 -14 -7 -16 -7 -3 2 -8 18 -11
17 -4 46 -11 66 -16 51 -14 105 -12 118 3 10 12 20 112 36 332 7 106 1 114
-96 126 -111 12 -155 11 -169 -6z"/>
</g>
</svg>
